<svg width="20" height="20" viewBox="0 0 20 20" fill="none" xmlns="http://www.w3.org/2000/svg">
<path fill-rule="evenodd" clip-rule="evenodd" d="M10 20C15.5228 20 20 15.5228 20 10C20 4.47715 15.5228 0 10 0C4.47715 0 0 4.47715 0 10C0 15.5228 4.47715 20 10 20ZM4.08128 9.85283C5.01878 9.29033 12.9563 6.00908 13.3313 5.91533C13.3624 5.90754 13.3996 5.89738 13.4416 5.88593C13.9045 5.75946 14.9459 5.47495 14.8313 6.47783C14.7063 7.57158 13.9563 12.6341 13.7063 14.1028C13.4563 15.5716 12.1125 14.9153 12.1125 14.9153C12.1125 14.9153 10.05 13.4778 8.98753 12.8216C7.92503 12.1653 8.70628 11.5716 8.70628 11.5716C8.70628 11.5716 11.3625 9.04033 11.8313 8.57158C12.3 8.10283 11.9875 7.97783 11.4563 8.32158C10.925 8.66533 7.98753 10.6341 7.33128 11.1028C6.69441 11.5577 6.17527 11.4534 5.57392 11.3326C5.55561 11.329 5.53724 11.3253 5.51878 11.3216C4.9011 11.198 4.68021 11.105 4.102 10.8616L4.10199 10.8616L4.08128 10.8528C3.48753 10.6028 3.14378 10.4153 4.08128 9.85283Z" fill="#53A6F3"/>
</svg>
